<svg width="101" height="101" viewBox="0 0 101 101" fill="none" xmlns="http://www.w3.org/2000/svg">
<g clip-path="url(#clip0_108_112)">
<path d="M75.8482 21.6536C90.2018 25.8536 100.5 37.3375 100.5 50.8429C100.5 60.0357 95.725 68.2982 88.1482 73.9589L87.4875 74.4286L86.4393 75.1536L86.3321 75.225C83.6714 77.1893 85.3179 81.3214 87.7821 84.6268L88.2393 85.2161C88.394 85.4101 88.5506 85.6 88.7089 85.7857L89.1875 86.3286L89.6107 86.7857L89.9286 87.1518C90.8839 88.3036 90.7911 88.7982 89.6536 88.6786L89.2821 88.625C89.0547 88.5844 88.829 88.5349 88.6054 88.4768C86.1727 87.8741 83.8103 87.017 81.5571 85.9196L80.7143 85.4929C80.4429 85.35 80.1792 85.2083 79.9232 85.0679L79.1821 84.6482L78.4821 84.2339L75.7571 82.5607L75.2196 82.25L74.6964 81.9696C73.3179 81.2625 72.0536 80.9107 70.5321 81.2018L70.2304 81.2661C66.8708 81.7646 63.4647 81.8719 60.0804 81.5857C75.8339 75.4786 86.7661 62.1054 86.7661 46.5911C86.7661 37.2304 82.7875 28.65 76.1696 21.975L75.8482 21.6536ZM40.8589 13.25C63.1482 13.25 81.2196 28.4143 81.2196 47.1143C81.2196 65.8196 63.1482 80.9821 40.8589 80.9821C38.8411 80.9798 36.8637 80.8589 34.9268 80.6196L33.7571 80.4589C32.1411 80.075 30.8018 80.3339 29.3946 80.9768L28.8625 81.2321L28.3196 81.5232L27.7625 81.8411L26.2804 82.7464L25.3071 83.3464L24.2571 83.9786L23.5071 84.4107L22.7125 84.85L22.2964 85.0696L21.4268 85.5107C18.7649 86.8122 15.9644 87.8085 13.0786 88.4804L12.6464 88.5589C11.1804 88.7786 11.0071 88.2429 12.1357 86.8929L12.475 86.5054L12.6696 86.2964C12.8304 86.125 12.9911 85.95 13.1518 85.7714L13.625 85.2214L14.0929 84.6482L14.5446 84.0554L14.9821 83.4464L15.3964 82.825C15.4643 82.7214 15.5304 82.6167 15.5946 82.5107L15.9714 81.8768C17.7232 78.7964 18.4071 75.5589 16.0714 73.8411L14.3696 72.6625L14.0768 72.4518C5.75 66.25 0.5 57.1911 0.5 47.1143C0.5 28.4143 18.5661 13.25 40.8589 13.25Z" fill="#0A1D69"/>
</g>
<defs>
<clipPath id="clip0_108_112">
<rect width="100" height="100" fill="white" transform="translate(0.5 0.75)"/>
</clipPath>
</defs>
</svg>
