<svg width="100" height="101" viewBox="0 0 100 101" fill="none" xmlns="http://www.w3.org/2000/svg">
<path d="M50 13.25C54.9246 13.25 59.8009 14.22 64.3506 16.1045C68.9003 17.9891 73.0343 20.7513 76.5165 24.2335C79.9987 27.7157 82.7609 31.8497 84.6455 36.3994C86.53 40.9491 87.5 45.8254 87.5 50.75C87.5 55.6746 86.53 60.5509 84.6455 65.1006C82.7609 69.6503 79.9987 73.7843 76.5165 77.2665C73.0343 80.7487 68.9003 83.5109 64.3506 85.3955C59.8009 87.28 54.9246 88.25 50 88.25M50 13.25C45.0754 13.25 40.1991 14.22 35.6494 16.1045C31.0997 17.9891 26.9657 20.7513 23.4835 24.2335C20.0013 27.7157 17.2391 31.8497 15.3545 36.3994C13.47 40.9491 12.5 45.8254 12.5 50.75C12.5 55.6746 13.47 60.5509 15.3545 65.1006C17.2391 69.6503 20.0013 73.7843 23.4835 77.2665C26.9657 80.7487 31.0997 83.5109 35.6494 85.3955C40.1991 87.28 45.0754 88.25 50 88.25M50 13.25C61.5042 13.25 66.4208 34.7625 66.4208 50.75C66.4208 66.7375 61.5042 88.25 50 88.25M50 13.25C38.4958 13.25 33.5792 34.7625 33.5792 50.75C33.5792 66.7375 38.4958 88.25 50 88.25M14.5833 63.25H85.4167M14.5833 38.25H85.4167" stroke="#001050" stroke-width="6.25" stroke-linecap="round" stroke-linejoin="round"/>
</svg>
