<svg width="71" height="80" viewBox="0 0 71 80" fill="none" xmlns="http://www.w3.org/2000/svg">
<path d="M0.083313 13.1663C0.083313 29.2149 0.083313 67.333 0.083313 67.333C0.083313 74.2366 5.67975 79.833 12.5833 79.833H58.4166V25.6663C58.4166 25.6663 23.4846 25.6663 12.5833 25.6663C5.70831 25.6663 0.083313 20.0743 0.083313 13.1663Z" fill="#2F88FF" stroke="black" stroke-width="2" stroke-linejoin="round"/>
<path d="M58.4167 25.666C58.4167 25.666 14.9869 25.666 12.5833 25.666C5.67975 25.666 0.083313 20.0696 0.083313 13.166C0.083313 6.26248 5.67975 0.666018 12.5833 0.666018C17.1856 0.666018 39.4079 0.666018 70.9167 0.666018V75.666" stroke="black" stroke-width="2" stroke-linecap="round" stroke-linejoin="round"/>
<path d="M14.6666 13.166H56.3333" stroke="black" stroke-width="2" stroke-linecap="round" stroke-linejoin="round"/>
</svg>
