<svg width="40" height="41" viewBox="0 0 40 41" fill="none" xmlns="http://www.w3.org/2000/svg">
<path d="M20 19.6663C18.895 19.6663 17.8352 19.2274 17.0538 18.446C16.2724 17.6646 15.8334 16.6047 15.8334 15.4997C15.8334 14.3946 16.2724 13.3348 17.0538 12.5534C17.8352 11.772 18.895 11.333 20 11.333C21.1051 11.333 22.1649 11.772 22.9463 12.5534C23.7277 13.3348 24.1667 14.3946 24.1667 15.4997C24.1667 16.0468 24.0589 16.5887 23.8495 17.0942C23.6401 17.5997 23.3332 18.059 22.9463 18.446C22.5594 18.8329 22.1001 19.1398 21.5946 19.3492C21.089 19.5586 20.5472 19.6663 20 19.6663ZM20 3.83301C16.9058 3.83301 13.9384 5.06217 11.7505 7.2501C9.56254 9.43802 8.33337 12.4055 8.33337 15.4997C8.33337 24.2497 20 37.1663 20 37.1663C20 37.1663 31.6667 24.2497 31.6667 15.4997C31.6667 12.4055 30.4375 9.43802 28.2496 7.2501C26.0617 5.06217 23.0942 3.83301 20 3.83301Z" fill="black"/>
</svg>
