<svg width="40" height="41" viewBox="0 0 40 41" fill="none" xmlns="http://www.w3.org/2000/svg">
<path d="M15.0066 6.1936C14.0533 4.8436 12.7333 4.23527 11.3333 4.25027C10.005 4.2636 8.71164 4.83194 7.63164 5.5886C6.53007 6.36414 5.59078 7.34759 4.86664 8.4836C4.18331 9.56527 3.68998 10.8436 3.75664 12.0919C4.07831 18.0969 7.45664 24.5136 12.2016 29.2619C16.9433 34.0053 23.275 37.3019 29.6683 36.6719C30.9216 36.5486 32.1066 35.9103 33.075 35.0969C34.0765 34.2486 34.8948 33.2052 35.48 32.0303C36.0466 30.8769 36.385 29.5469 36.1983 28.2519C36.005 26.9019 35.25 25.6953 33.8616 24.8953C33.574 24.7284 33.2895 24.5561 33.0083 24.3786C32.7583 24.2236 32.4916 24.0553 32.1683 23.8619C31.5079 23.4547 30.811 23.1099 30.0866 22.8319C29.3416 22.5603 28.49 22.3819 27.6033 22.5036C26.685 22.6303 25.8316 23.0636 25.0933 23.8403C24.525 24.4403 23.6883 24.6269 22.5116 24.2869C21.315 23.9403 19.9683 23.0803 18.7983 21.9169C17.6283 20.7569 16.7433 19.4003 16.365 18.1753C15.9916 16.9619 16.1566 16.0703 16.74 15.4553C17.5283 14.6253 17.9483 13.7019 18.0366 12.7253C18.1233 11.7753 17.8866 10.8819 17.5483 10.1019C17.0416 8.93694 16.1816 7.7786 15.5083 6.87527C15.339 6.64943 15.1723 6.42163 15.0083 6.19194" fill="black"/>
</svg>
